<?xml version="1.0" encoding="utf-8"?>
<!-- Svg Vector Icons : http://www.onlinewebfonts.com/icon -->
<!DOCTYPE svg PUBLIC "-//W3C//DTD SVG 1.1//EN" "http://www.w3.org/Graphics/SVG/1.1/DTD/svg11.dtd">
<svg version="1.1" xmlns="http://www.w3.org/2000/svg" xmlns:xlink="http://www.w3.org/1999/xlink" x="0px" y="0px" viewBox="0 0 1000 1000" enable-background="new 0 0 1000 1000" xml:space="preserve">
<metadata> Svg Vector Icons : http://www.onlinewebfonts.com/icon </metadata>
<g><path d="M329.6,320l35.9-35.9l38.7-38.6c13.7-13.6,13.7-35.8,0.2-49.3L228,19.8C214.4,6.4,192.6,6.6,179,20.2c-29.3,29.3-58.4,58.5-87.7,87.8l226.4,226.5C321.2,329.3,325.2,324.6,329.6,320z M504,703.3c-37-31.9-72.6-65.7-107.1-100.3c-34.4-34.6-68.2-70.1-100.1-107.3c-26.1-30.2-31.2-74-17.6-110.8L46.7,152.6C-7.3,208.2-0.4,346,58.8,467.1c25.5,52.4,58.4,99.7,92.6,144.6c34.1,44.6,71.4,86.9,110.7,126.4c39.5,39.5,81.4,77.1,126.1,111.1c45,34.2,92.4,67.1,144.4,92.3c121.2,59.2,259.2,65.7,314.7,11.6L614.9,720.8C578.1,734.4,534.3,729.4,504,703.3z M980,771.9L803.7,595.5c-13.6-13.4-35.7-13.4-49.2,0.2h-0.1l-38.7,38.7l-35.8,35.9c-4.4,4.4-9.2,8.3-14.4,11.9l226.4,226.5c29.3-29.3,58.5-58.5,87.8-87.7C993.2,807.4,993.6,785.4,980,771.9z"/></g>
</svg>